<svg xmlns="http://www.w3.org/2000/svg" width="32.855" height="31.499" viewBox="0 0 32.855 31.499"><path fill="#e5cfb4" d="M24.831 31.482a11.424 11.424 0 01-3.347-.491c-7.469-2.271-13.033-7-17.563-13.357A19.547 19.547 0 01.178 9.817 9.506 9.506 0 013.067.87 5.252 5.252 0 017.424.225a1.732 1.732 0 01.722.857c.935 2.329 1.883 4.58 2.827 6.873a1.8 1.8 0 01-.115 1.361 11.311 11.311 0 01-2.029 2.753 1.343 1.343 0 00-.152 1.852 22.2 22.2 0 0011.034 9.8 1.261 1.261 0 001.657-.38c.833-1.063 1.649-2.057 2.415-3.118a1.318 1.318 0 011.839-.477c1.55.72 3.148 1.5 4.682 2.252.4.194.7.348 1.071.525 1.55.818 1.55.841 1.435 2.636-.288 3.524-2.812 5.284-5.853 6.159a6.857 6.857 0 01-2.126.164z"/></svg>