<svg xmlns="http://www.w3.org/2000/svg" width="26" height="24.487">
    <defs>
        <style>
            .cls-1{fill:#e5cfb4}
        </style>
    </defs>
    <g id="quotation-mark" transform="translate(0 -5.619)">
        <path id="Path_1320" data-name="Path 1320" class="cls-1" d="M14.978 20.222c-.9-4.634-5.144-6.739-9.476-5.919.5-2.6 2.931-4.725 4.512-6.7a.741.741 0 0 0 0-1.037 3.037 3.037 0 0 0-2.329-.747.276.276 0 0 0-.352-.184c-2.544.8-4.192 3.519-5.294 5.771a20.1 20.1 0 0 0-2.014 9.717c.27 5.208 4.92 10.174 10.457 8.728 4.042-1.051 5.189-6.059 4.496-9.629zm-10.36 4.167c.025-.1.047-.2.07-.295a2.07 2.07 0 0 1 .2.321 2.567 2.567 0 0 1-.276.022.258.258 0 0 0 .006-.048zM3.446 12.167a.7.7 0 0 0 .212.053q-.325.651-.6 1.326a.787.787 0 0 0-.22-.032c.188-.456.392-.904.608-1.347zm-.555 13.22c.174.18.361.352.555.518a.7.7 0 0 0-.075.12 5.757 5.757 0 0 1-.48-.638zm4.994-.018a3 3 0 0 1-.5-.964.205.205 0 0 0-.025-.078 2.793 2.793 0 0 1-.075-.373 10.347 10.347 0 0 1 .933 1.611 1.981 1.981 0 0 1-.333-.196z"/>
        <path id="Path_1321" data-name="Path 1321" class="cls-1" d="M89.412 16.994c.49-1.978 1.825-3.343 2.8-5.127a.657.657 0 0 0-.235-.895c-.6-.281-1.147-.592-1.75-.823a.734.734 0 0 0-1.157-.265 14.091 14.091 0 0 0-2.214 2.5 7.925 7.925 0 0 0-1.691 3.584.779.779 0 0 0 .058.431l-.094.162a.59.59 0 0 0 .209.8 8.707 8.707 0 0 1 4.553 8.146 3.235 3.235 0 0 0-.145 1.486 13.521 13.521 0 0 1-1.776 4.737.688.688 0 0 0 .071.865.542.542 0 0 0 .432.366c5.243 1.184 10.518-1.325 11.087-7.046.525-5.324-5.02-9.81-10.148-8.921zm1.995 14.793.053-.054a3.031 3.031 0 0 0 1.3-.39c0 .019.007.036.012.054a.654.654 0 0 0 .059.134 10.034 10.034 0 0 1-1.424.256zm3.719-10.008c-.05.091-.093.183-.137.275 0-.026 0-.052-.008-.078a2.722 2.722 0 0 1 .091-.584l.017.011q.04.164.065.335c-.008.014-.02.026-.028.04zm2.505 5.741v-.378a3.97 3.97 0 0 0 .222-.431 5.8 5.8 0 0 1-.222.808z" transform="translate(-73.591 -3.529)"/>
    </g>
</svg>
