<svg id="teeth" xmlns="http://www.w3.org/2000/svg" width="40.128" height="31.434">
    <defs>
        <style>
            .cls-1{fill:#fff}
        </style>
    </defs>
    <path id="Path_1328" data-name="Path 1328" class="cls-1" d="M20.064 0C13.125 0 0 .978 0 4.682v5.35a1.333 1.333 0 0 0 .669 1.152v.855a2.006 2.006 0 0 0 2.006 2.006h.792a2.006 2.006 0 0 0 1.883 1.337h2.007a1.979 1.979 0 0 0 .984-.268 2 2 0 0 0 1.692.937h2.675a1.988 1.988 0 0 0 .984-.268 2 2 0 0 0 1.691.936h3.344a1.993 1.993 0 0 0 1.338-.522 1.993 1.993 0 0 0 1.338.522h3.344a2 2 0 0 0 1.691-.936 1.988 1.988 0 0 0 .984.268H30.1a2 2 0 0 0 1.692-.937 1.979 1.979 0 0 0 .984.268h2.007a2.006 2.006 0 0 0 1.883-1.338h.792a2.006 2.006 0 0 0 2.006-2.006v-.855a1.333 1.333 0 0 0 .669-1.152V4.682C40.128.978 27 0 20.064 0zm0 1.338c12.117 0 18.727 2.207 18.727 3.344v3.964A1.725 1.725 0 0 0 37.6 8.2a1.989 1.989 0 0 0-1.192.4 2.608 2.608 0 0 0-2.375-1.32 3.249 3.249 0 0 0-2.4 1.067 2.861 2.861 0 0 0-2.582-1.362 3.632 3.632 0 0 0-2.76 1.271 3.143 3.143 0 0 0-2.885-1.568 4.013 4.013 0 0 0-3.344 1.8 4.013 4.013 0 0 0-3.344-1.8 3.144 3.144 0 0 0-2.887 1.571 3.631 3.631 0 0 0-2.76-1.271 2.859 2.859 0 0 0-2.577 1.359A3.25 3.25 0 0 0 6.1 7.283 2.609 2.609 0 0 0 3.719 8.6a1.988 1.988 0 0 0-1.192-.4 1.725 1.725 0 0 0-1.189.444V4.682c0-1.137 6.609-3.344 18.726-3.344zM2.007 12.039v-1.784c0-.12.025-.718.52-.718a.981.981 0 0 1 .817 1.063v2.105h-.669a.669.669 0 0 1-.668-.666zm5.35 2.006H5.35a.669.669 0 0 1-.669-.669v-3.344A1.329 1.329 0 0 1 6.093 8.62a1.934 1.934 0 0 1 1.932 1.932v2.824a.669.669 0 0 1-.668.669zm5.35.669h-2.675a.669.669 0 0 1-.669-.669v-4.013a1.633 1.633 0 0 1 1.71-1.71 2.306 2.306 0 0 1 2.3 2.3v3.418a.669.669 0 0 1-.666.674zm6.019.669h-3.344a.669.669 0 0 1-.669-.669v-4.682a1.916 1.916 0 0 1 2.007-2.006A2.675 2.675 0 0 1 19.4 10.7v4.013a.669.669 0 0 1-.673.669zm6.688-.669a.669.669 0 0 1-.669.669H21.4a.669.669 0 0 1-.669-.669V10.7a2.675 2.675 0 0 1 2.675-2.675 1.916 1.916 0 0 1 2.006 2.007zm5.351-.669a.669.669 0 0 1-.669.669h-2.675a.669.669 0 0 1-.669-.669v-3.418a2.306 2.306 0 0 1 2.3-2.3 1.633 1.633 0 0 1 1.71 1.71zm4.681-.669a.669.669 0 0 1-.669.669h-2.006a.669.669 0 0 1-.669-.669v-2.823a1.934 1.934 0 0 1 1.933-1.933 1.329 1.329 0 0 1 1.412 1.412zm2.675-1.338a.669.669 0 0 1-.669.669h-.669V10.6a.981.981 0 0 1 .817-1.064c.5 0 .52.6.52.718zm0 0"/>
    <path id="Path_1329" data-name="Path 1329" class="cls-1" d="M8.535 221.051v5.166c0 3.593 12.687 4.543 19.4 4.543s19.4-.95 19.4-4.543v-5.166a1.31 1.31 0 0 0-.695-1.152 2.489 2.489 0 0 0 .026-.334V218.4a1.962 1.962 0 0 0-1.96-1.96H44.6a1.956 1.956 0 0 0-1.4.591 2.6 2.6 0 0 0-1.832-.755h-.8a2.6 2.6 0 0 0-2.021.968 2.569 2.569 0 0 0-1.187-.3h-1.471a2.6 2.6 0 0 0-2.226 1.271 2.584 2.584 0 0 0-1.647-.6H29.87a2.588 2.588 0 0 0-1.939.88 2.588 2.588 0 0 0-1.939-.88h-2.14a2.582 2.582 0 0 0-1.647.6 2.6 2.6 0 0 0-2.226-1.271H18.5a2.568 2.568 0 0 0-1.187.3 2.6 2.6 0 0 0-2.023-.968h-.8a2.6 2.6 0 0 0-1.832.755 1.957 1.957 0 0 0-1.4-.591h-.092A1.962 1.962 0 0 0 9.2 218.4v1.161a2.5 2.5 0 0 0 .026.335 1.31 1.31 0 0 0-.691 1.155zm35.447-2.65a.624.624 0 0 1 .623-.622h.095a.624.624 0 0 1 .623.622v1.161c0 .121-.025.719-.52.719a.98.98 0 0 1-.818-1.065zm-3.411-.787h.8a1.271 1.271 0 0 1 1.271 1.271v2.578a1.285 1.285 0 0 1-1.411 1.338h-.093a1.787 1.787 0 0 1-1.17-.431v-2.819a2.583 2.583 0 0 0-.419-1.4 1.259 1.259 0 0 1 1.022-.536zm-5.953 1.939a1.271 1.271 0 0 1 1.271-1.271h1.471a1.271 1.271 0 0 1 1.271 1.271v3.229a1.582 1.582 0 0 1-1.71 1.623h-.1a2.207 2.207 0 0 1-2.2-2.2v-2.655zm-4.748-.6h2.14a1.271 1.271 0 0 1 1.271 1.271v3.876c0 .347 0 1.271-2.006 1.271h-.115a2.563 2.563 0 0 1-2.56-2.571v-2.581a1.27 1.27 0 0 1 1.27-1.266zm-6.019 0h2.14a1.271 1.271 0 0 1 1.271 1.271v2.576a2.562 2.562 0 0 1-2.56 2.559h-.115c-2.006 0-2.006-.922-2.006-1.271v-3.87a1.271 1.271 0 0 1 1.27-1.265zm-3.873-.669a1.271 1.271 0 0 1 1.271 1.271v2.655a2.207 2.207 0 0 1-2.206 2.2h-.1a1.582 1.582 0 0 1-1.71-1.626v-3.229a1.271 1.271 0 0 1 1.271-1.271zm-5.484-.669h.8a1.261 1.261 0 0 1 1.021.53 2.583 2.583 0 0 0-.419 1.4v2.818a1.786 1.786 0 0 1-1.17.435h-.094a1.285 1.285 0 0 1-1.417-1.338v-2.582a1.271 1.271 0 0 1 1.271-1.267zm-3.951.787a.623.623 0 0 1 .623-.622h.092a.623.623 0 0 1 .623.622v.815a.98.98 0 0 1-.817 1.065c-.5 0-.52-.6-.52-.719zm.52 3.218a1.957 1.957 0 0 0 .817-.182v.027a2.624 2.624 0 0 0 2.749 2.675h.093a3.166 3.166 0 0 0 1.349-.309 2.846 2.846 0 0 0 2.868 1.914h.1a3.51 3.51 0 0 0 2.31-.88c.243.837 1 1.835 3.235 1.835h.116a3.9 3.9 0 0 0 3.229-1.716 3.9 3.9 0 0 0 3.229 1.717h.115c2.234 0 2.992-1 3.235-1.835a3.511 3.511 0 0 0 2.31.878h.1a2.844 2.844 0 0 0 2.868-1.912 3.161 3.161 0 0 0 1.349.309h.093a2.625 2.625 0 0 0 2.749-2.675v-.031a1.946 1.946 0 0 0 .818.182 1.722 1.722 0 0 0 1.188-.445v5.045c0 1.088-6.374 3.205-18.058 3.205s-18.058-2.117-18.058-3.205l-.023-5.068a1.718 1.718 0 0 0 1.218.47zm0 0" transform="translate(-7.866 -199.326)"/>
</svg>
