<svg xmlns="http://www.w3.org/2000/svg" width="297.745" height="35.023">
    <path data-name="Path 1323" d="m684.74 2129.114-.072-.976 132.565-10.371a25142.89 25142.89 0 0 0-127.143 5.061l-.042-.977a25358.01 25358.01 0 0 1 151.427-5.955c26-1.939 52.373-3.562 78.736-3.572l40.354-2.71.067.976-27.7 1.859q2.484.052 4.962.124 21.976-.716 43.876-1.391l.034.978q-14.208.519-28.464 1.1 7.333.438 14.643 1.106l-.022.976-264.2 12.5zm148.421-9.966-80.076 5.376 207.359-9.809q-8.973-.674-17.979-1.01-54.545 2.295-109.304 5.443zm8.37-2.276q-10.635.794-21.178 1.632l-23.776 1.86q18.248-1.142 36.524-2.191l31.919-2.144q-11.739.416-23.489.843zm60.4-3.322c-9.61.251-19.2.676-28.774 1.214q11.077-.389 22.142-.768z" transform="rotate(3 40624.306 -11998.925)" style="fill:#e5cfb4"/>
</svg>
