<svg xmlns="http://www.w3.org/2000/svg" width="29.902" height="38" viewBox="0 0 29.902 38">
  <defs>
    <style>
      .cls-1 {
        fill: #e5cfb4;
      }
    </style>
  </defs>
  <g id="crown" transform="translate(-30.826)">
    <path id="Path_1330" data-name="Path 1330" class="cls-1" d="M97.841,23.953a.623.623,0,1,1,0-1.246c1.8,0,4.312-2.537,5.128-3.514a.623.623,0,0,1,.957.8C103.588,20.4,100.546,23.953,97.841,23.953Z" transform="translate(-57.671 -16.477)"/>
    <path id="Path_1331" data-name="Path 1331" class="cls-1" d="M56.367,19.312H35.187a.624.624,0,0,1-.608-.487,5.165,5.165,0,0,0-.871-1.681q-.185-.263-.355-.526a16.1,16.1,0,0,1-2.526-8.806V6.229c0-4.928,5.3-6.229,8.1-6.229a11.05,11.05,0,0,1,6.852,2.291A11.051,11.051,0,0,1,52.629,0c2.8,0,8.1,1.3,8.1,6.229V7.812A16.106,16.106,0,0,1,58.2,16.619q-.17.263-.355.525a5.153,5.153,0,0,0-.871,1.681A.624.624,0,0,1,56.367,19.312ZM35.649,18.066H55.905a7.418,7.418,0,0,1,.923-1.638q.171-.243.328-.485a14.875,14.875,0,0,0,2.325-8.129V6.23c0-4.913-6.573-4.983-6.853-4.984a9.668,9.668,0,0,0-6.413,2.31.624.624,0,0,1-.88,0,9.67,9.67,0,0,0-6.412-2.309c-.279,0-6.852.07-6.852,4.984V7.812A14.868,14.868,0,0,0,34.4,15.941c.106.163.215.325.329.487A7.451,7.451,0,0,1,35.649,18.066Z" transform="translate(0 0)"/>
    <path id="Path_1332" data-name="Path 1332" class="cls-1" d="M91.572,141.266H74.129a.623.623,0,0,1-.623-.623v-2.492a.623.623,0,0,1,.623-.623H91.572a.623.623,0,0,1,.623.623v2.492A.623.623,0,0,1,91.572,141.266Zm-16.82-1.246h16.2v-1.246h-16.2Z" transform="translate(-37.074 -119.462)"/>
    <path id="Path_1333" data-name="Path 1333" class="cls-1" d="M117.674,173.939h-3.738a.624.624,0,0,1-.557-.345l-1.869-3.738a.625.625,0,0,1-.065-.278V157.119a.623.623,0,0,1,.623-.623h7.475a.623.623,0,0,1,.623.623v12.459a.625.625,0,0,1-.065.278l-1.869,3.738A.623.623,0,0,1,117.674,173.939Zm-3.353-1.246h2.968l1.631-3.262V157.742H112.69v11.689Z" transform="translate(-70.028 -135.939)"/>
    <path id="Path_1334" data-name="Path 1334" class="cls-1" d="M112.55,181.455h-9.967a.623.623,0,1,1,0-1.246h9.967a.623.623,0,1,1,0,1.246Z" transform="translate(-61.79 -156.537)"/>
    <path id="Path_1335" data-name="Path 1335" class="cls-1" d="M112.55,200.424h-9.967a.623.623,0,1,1,0-1.246h9.967a.623.623,0,0,1,0,1.246Z" transform="translate(-61.79 -173.014)"/>
    <path id="Path_1336" data-name="Path 1336" class="cls-1" d="M112.55,219.393h-9.967a.623.623,0,0,1,0-1.246h9.967a.623.623,0,0,1,0,1.246Z" transform="translate(-61.79 -189.491)"/>
    <path id="Path_1337" data-name="Path 1337" class="cls-1" d="M112.55,238.362h-9.967a.623.623,0,1,1,0-1.246h9.967a.623.623,0,1,1,0,1.246Z" transform="translate(-61.79 -205.968)"/>
    <path id="Path_1338" data-name="Path 1338" class="cls-1" d="M112.55,257.332h-9.967a.623.623,0,1,1,0-1.246h9.967a.623.623,0,1,1,0,1.246Z" transform="translate(-61.79 -222.447)"/>
  </g>
</svg>
