<svg xmlns="http://www.w3.org/2000/svg" width="31.315" height="42" viewBox="0 0 31.315 42">
  <defs>
    <style>
      .cls-1 {
        fill: #e5cfb4;
      }
    </style>
  </defs>
  <g id="open-mouth" transform="translate(-65.114)">
    <path id="Path_1347" data-name="Path 1347" class="cls-1" d="M95.041,7.23C92.826,2.075,87.354-1.5,81.783.621a2.917,2.917,0,0,1-2.023,0C74.231-1.481,68.734,2.033,66.5,7.23c-2.2,5.13-1.516,12.364.216,17.619a23.883,23.883,0,0,0,.357,4.719C68.389,37.134,72.846,42,80.616,42c3.856,0,7.2-.945,9.86-3.738,3.2-3.362,4.513-8.964,4.349-13.413,1.731-5.253,2.421-12.487.216-17.619Zm.074,7.962a33.942,33.942,0,0,1-1.571,9.35.655.655,0,0,0-.035.253c0,.079.406,7.951-3.983,12.563-2.392,2.513-5.424,3.331-8.907,3.331a11.36,11.36,0,0,1-8.6-3.326C67.559,32.679,68.076,24.767,68,24.541a33.933,33.933,0,0,1-1.571-9.35c-.083-5.63,1.636-10.665,6.692-13.146a7.789,7.789,0,0,1,6.173-.2,4.229,4.229,0,0,0,2.957,0,7.786,7.786,0,0,1,6.173.2c5.055,2.48,6.775,7.514,6.692,13.146Z" transform="translate(0 0)"/>
    <path id="Path_1348" data-name="Path 1348" class="cls-1" d="M104.583,56.459h-.026c-10.079.2-14.278,5.719-13.4,13.978a22.136,22.136,0,0,0,1,4.642c-.194,5.237,1.781,11.334,6.395,13.741,4.708,2.522,11.791,1.659,15.244-2.688,3.3-4.146,3.233-10.055,3.2-11.054a22.13,22.13,0,0,0,1-4.642C118.875,62.045,114.52,56.655,104.583,56.459Zm-.013,1.313c4.373,0,8.8,1.224,10.921,5.027a1.637,1.637,0,0,1-.429,1.068c-.688.5-1.923-.818-3.909-1.836l.238-.443a.656.656,0,1,0-1.157-.62l-.282.526a12.472,12.472,0,0,0-4.725-.8v-.567a.656.656,0,1,0-1.313,0v.567a12.464,12.464,0,0,0-4.749.808l-.335-.561a.656.656,0,1,0-1.127.673l.258.432c-1.945,1-3.2,2.316-3.881,1.821A1.636,1.636,0,0,1,93.65,62.8C95.756,58.993,100.22,57.771,104.57,57.771ZM107.4,88.585a14.7,14.7,0,0,1-6.028-.082c-5.2-1.3-7.439-6.139-7.855-11.478l.2-.068c1.917,1.167,2.462,3.395,3.26,5.077l-.964.5a.656.656,0,0,0,.6,1.166l.968-.5a7.017,7.017,0,0,0,5.441,3.89,15.824,15.824,0,0,0,3.192-.016,6.793,6.793,0,0,0,4.984-3.306c.642.334.761.484,1.039.484a.657.657,0,0,0,.32-1.23l-.7-.389A24.218,24.218,0,0,0,112.9,80.32a6.541,6.541,0,0,1,2.524-3.363l.2.068c-.433,5.555-2.807,10.407-8.214,11.56ZM95.286,76.507a19.57,19.57,0,0,1,6.926-.492,12.483,12.483,0,0,0,4.133.075,19.4,19.4,0,0,1,7.509.417c-2.479,2.245-2.332,5.4-4.744,7.781a5.227,5.227,0,0,1-3.158,1.5,15.349,15.349,0,0,1-2.846-.011,5.193,5.193,0,0,1-3.076-1.486c-2.357-2.325-2.29-5.56-4.744-7.782Zm20.424-1.754c-.062.168-.034.233-.031.643-.11.037-.233.085-.366.144a22.41,22.41,0,0,0-3.592-.778c3.1-4.292.2-9.907-5.5-10.879a.657.657,0,0,0-.729.427,10.788,10.788,0,0,0-.2,4.695.717.717,0,1,1-1.427-.115,8.384,8.384,0,0,0-.119-4.62.656.656,0,0,0-.712-.4,9,9,0,0,0-4.076,1.721.656.656,0,1,0,.8,1.041,7.585,7.585,0,0,1,2.932-1.359,8.887,8.887,0,0,1-.127,3.451,2.03,2.03,0,1,0,4.021,0,10.159,10.159,0,0,1-.008-3.423c4.761,1.165,6.7,6.012,3.573,9.317a18.934,18.934,0,0,0-4,.181c-2.776.433-3.41-.4-7.146-.178a5.223,5.223,0,0,1-1.476-4.353.656.656,0,1,0-1.3-.185,6.408,6.408,0,0,0,1.2,4.69,22.471,22.471,0,0,0-3.591.775c-.135-.06-.26-.108-.371-.146,0-.4.031-.475-.031-.642a20.707,20.707,0,0,1-.976-4.488,14.066,14.066,0,0,1,.456-5.728,2,2,0,0,0,2.327.6,6.792,6.792,0,0,0,1.57-.868c3.876-2.555,5.526-2.2,8.3-2.262,5.14-.124,7.114,2.6,8.794,3.13a2,2,0,0,0,2.329-.6C117.706,69.214,115.734,74.689,115.711,74.753Z" transform="translate(-23.799 -51.826)"/>
    <path id="Path_1349" data-name="Path 1349" class="cls-1" d="M165.475,188.034a.656.656,0,1,0-.592,1.108A.657.657,0,0,0,165.475,188.034Z" transform="translate(-91.097 -172.429)"/>
  </g>
</svg>
