<svg xmlns="http://www.w3.org/2000/svg" width="33.106" height="33.085" viewBox="0 0 33.106 33.085">
    <g>
        <g>
            <path fill="#e5cfb4" stroke="#e5cfb4" d="M24.4 60.637c.154.007.3.014.454.014a5.339 5.339 0 0 0 4.087-1.761l.028-.028a16.146 16.146 0 0 1 1.279-1.321c.314-.3.636-.608.936-.929a3.244 3.244 0 0 0-.014-4.828L27.192 47.8a3.264 3.264 0 0 0-2.369-1.09 3.367 3.367 0 0 0-2.39 1.076l-2.355 2.355c-.21-.119-.426-.224-.636-.328-.266-.133-.51-.259-.727-.391a25 25 0 0 1-5.988-5.457 14.067 14.067 0 0 1-2.005-3.2c.615-.559 1.188-1.139 1.74-1.7.2-.2.405-.412.615-.622a3.167 3.167 0 0 0 0-4.835L11.1 31.626c-.231-.231-.454-.461-.678-.685-.44-.447-.894-.915-1.349-1.335a3.3 3.3 0 0 0-2.355-1.041 3.436 3.436 0 0 0-2.39 1.041l-2.48 2.473a5.171 5.171 0 0 0-1.536 3.293 12.37 12.37 0 0 0 .922 5.328 31.16 31.16 0 0 0 5.52 9.2 34.071 34.071 0 0 0 11.312 8.86 17.557 17.557 0 0 0 6.334 1.877zM8.075 48.808A29.44 29.44 0 0 1 2.848 40.1a10.6 10.6 0 0 1-.824-4.591 3.422 3.422 0 0 1 1.041-2.222l2.466-2.466a1.746 1.746 0 0 1 1.195-.552 1.681 1.681 0 0 1 1.167.559c.44.412.866.845 1.314 1.3.224.231.454.468.692.7l1.977 1.977a1.506 1.506 0 0 1 0 2.418c-.21.21-.419.419-.622.629-.615.622-1.188 1.209-1.824 1.775l-.035.035a1.333 1.333 0 0 0-.342 1.516l.021.056a15.808 15.808 0 0 0 2.334 3.794 26.648 26.648 0 0 0 6.407 5.834 9.884 9.884 0 0 0 .88.482c.266.133.51.259.727.391.028.014.049.028.077.042a1.461 1.461 0 0 0 .664.168 1.4 1.4 0 0 0 1.013-.468L23.656 49a1.7 1.7 0 0 1 1.181-.573 1.666 1.666 0 0 1 1.146.573l4 4a1.569 1.569 0 0 1-.021 2.439c-.279.3-.573.58-.88.88a18.175 18.175 0 0 0-1.39 1.439 3.6 3.6 0 0 1-2.816 1.188c-.112 0-.231-.007-.342-.014a15.957 15.957 0 0 1-5.7-1.7 32.1 32.1 0 0 1-10.759-8.424z" transform="translate(0.214 -1.141) translate(0.284 1.641) translate(-0.284 -28.566)"/>
        </g>
    </g>
</svg>
