<svg xmlns="http://www.w3.org/2000/svg" width="303.994" height="29.917">
    <path data-name="Path 1361" d="m684.742 2128.951-.074-.968 135.408-10.283c-43.4 1.571-86.769 3.247-129.869 5.018l-.043-.968c51.313-2.109 103-4.082 154.675-5.906 26.558-1.923 53.5-3.533 80.424-3.542l41.219-2.687.069.968-28.3 1.843q2.537.051 5.069.123 22.448-.709 44.816-1.379l.034.969q-14.513.515-29.075 1.088 7.49.434 14.957 1.1l-.023.967-269.865 12.394zm151.6-9.883-81.793 5.332 211.806-9.727q-9.165-.669-18.365-1-55.711 2.277-111.645 5.396zm8.55-2.257q-10.863.788-21.632 1.618l-24.286 1.844q18.64-1.132 37.307-2.173l32.6-2.126q-11.981.414-23.981.838zm61.695-3.294c-9.816.249-19.615.67-29.392 1.2q11.315-.386 22.617-.761z" transform="rotate(2 60772.54 -18538.175)" style="fill:#e5cfb4"/>
</svg>
