<svg xmlns="http://www.w3.org/2000/svg" width="300.897" height="23.315">
    <path data-name="Path 1325" d="m684.741 2122.445-.073-.642 134.126-6.824a38948.841 38948.841 0 0 0-128.64 3.33l-.043-.643a39499.67 39499.67 0 0 1 153.211-3.919c26.306-1.276 52.99-2.344 79.663-2.351l40.829-1.783.068.642-28.03 1.223q2.513.034 5.021.082 22.235-.471 44.392-.915l.034.643q-14.376.342-28.8.722 7.419.288 14.816.728l-.022.642-267.313 8.22zm150.169-6.557-81.019 3.538 209.8-6.454q-9.078-.443-18.191-.665-55.186 1.511-110.59 3.581zm8.469-1.5q-10.76.522-21.427 1.074l-24.056 1.224q18.463-.751 36.954-1.442l32.295-1.411q-11.878.276-23.766.557zm61.111-2.186q-14.584.248-29.113.8 11.208-.256 22.4-.505z" transform="rotate(2 60772.397 -18544.677)" style="fill:#d3ab7a"/>
</svg>
