<svg xmlns="http://www.w3.org/2000/svg" width="537.629" height="48.821">
    <path data-name="Path 1327" d="m684.8 2139.716-.13-1.506 239.54-16.01c-76.781 2.446-153.5 5.054-229.742 7.812l-.077-1.508c90.773-3.283 182.2-6.354 273.624-9.193 46.981-2.994 94.636-5.5 142.272-5.514l72.918-4.183.122 1.507-50.06 2.87q4.488.079 8.966.192 39.71-1.1 79.281-2.147l.061 1.509q-25.674.8-51.434 1.694 13.25.676 26.46 1.708l-.04 1.506-477.4 19.292zm268.19-15.384-144.694 8.3 374.69-15.142q-16.213-1.041-32.488-1.56-98.561 3.547-197.509 8.402zm15.125-3.513q-19.217 1.226-38.267 2.519l-42.963 2.871q32.974-1.763 66-3.383l57.676-3.309q-21.216.642-42.447 1.301zm109.14-5.127c-17.365.387-34.7 1.043-51.994 1.874q20.016-.6 40.01-1.185z" transform="rotate(2 60772.699 -18527.404)" style="fill:#e5cfb4"/>
</svg>
