<svg xmlns="http://www.w3.org/2000/svg" width="36.498" height="36.5" viewBox="0 0 36.498 36.5">
  <defs>
    <style>
      .cls-1 {
        fill: #e5cfb4;
      }
    </style>
  </defs>
  <g id="dental" transform="translate(-0.013)">
    <g id="Group_774" data-name="Group 774" transform="translate(0.013 12.776)">
      <g id="Group_773" data-name="Group 773">
        <path id="Path_1342" data-name="Path 1342" class="cls-1" d="M36.069,177.175l-5.9-1.686a3.876,3.876,0,0,0-2.613.173c.207-.664.4-1.338.544-2.033a.608.608,0,0,0-.592-.736h-2.08l-.871-3.485a1.825,1.825,0,0,0-1.771-1.381H13.737a1.825,1.825,0,0,0-1.771,1.382l-.871,3.484H9.016a.608.608,0,0,0-.595.736c.148.694.338,1.37.547,2.034a3.881,3.881,0,0,0-2.616-.174l-5.9,1.686a.608.608,0,0,0-.439.585v13.383a.608.608,0,0,0,.608.608H35.9a.608.608,0,0,0,.608-.608V177.76A.608.608,0,0,0,36.069,177.175Zm-24.5-3.065a.608.608,0,0,0,.59-.461l.986-3.944a.608.608,0,0,1,.591-.461h9.049a.608.608,0,0,1,.591.46l.8,3.189H13.4v1.217H26.74a21.088,21.088,0,0,1-.71,2.291l-.43,1.145a.617.617,0,0,0-.037.182l-.5,9.042a1.413,1.413,0,0,1-1.49,1.331,1.39,1.39,0,0,1-.159-.018,1.478,1.478,0,0,1-1.169-1.266l-1.283-8.56a2.738,2.738,0,0,0-1.136-1.83,2.7,2.7,0,0,0-1.559-.492A2.831,2.831,0,0,0,17.7,176a2.787,2.787,0,0,0-2.144,2.344L14.268,186.9a1.411,1.411,0,0,1-1.552,1.194,1.487,1.487,0,0,1-1.259-1.428l-.5-8.939a.617.617,0,0,0-.037-.182L10.5,176.4a21.136,21.136,0,0,1-.712-2.289Zm23.724,16.424H1.23V178.218l5.459-1.56a2.666,2.666,0,0,1,3.066,1.284l.487,8.79a2.63,2.63,0,0,0,5.23.347l1.284-8.562a1.566,1.566,0,0,1,1.186-1.333,1.513,1.513,0,0,1,1.8,1.16q.01.046.017.093L21.039,187a2.706,2.706,0,0,0,2.178,2.287,2.628,2.628,0,0,0,3.058-2.447l.495-8.893a2.667,2.667,0,0,1,3.066-1.284l5.459,1.56Z" transform="translate(-0.013 -168.027)"/>
      </g>
    </g>
    <g id="Group_776" data-name="Group 776" transform="translate(7.921 0)">
      <g id="Group_775" data-name="Group 775" transform="translate(0 0)">
        <path id="Path_1343" data-name="Path 1343" class="cls-1" d="M119.544,0a5.15,5.15,0,0,0-2.027.416,8.058,8.058,0,0,1-6.323,0,5.15,5.15,0,0,0-7.182,4.734,22.572,22.572,0,0,0,.5,4.709.608.608,0,0,0,.592.481H123.6a.608.608,0,0,0,.595-.481,22.57,22.57,0,0,0,.5-4.709A5.15,5.15,0,0,0,119.544,0ZM123.1,9.127H105.608a21.289,21.289,0,0,1-.378-3.974,3.936,3.936,0,0,1,5.484-3.616,9.275,9.275,0,0,0,7.28,0,3.936,3.936,0,0,1,5.484,3.616A21.276,21.276,0,0,1,123.1,9.127Z" transform="translate(-104.013 0)"/>
      </g>
    </g>
    <g id="Group_778" data-name="Group 778" transform="translate(10.354 2.516)">
      <g id="Group_777" data-name="Group 777">
        <path id="Path_1344" data-name="Path 1344" class="cls-1" d="M138.142,33.083a4,4,0,0,0-2.129,3.451v.727h1.217v-.73a2.807,2.807,0,0,1,1.521-2.395Z" transform="translate(-136.013 -33.083)"/>
      </g>
    </g>
  </g>
</svg>
