<svg xmlns="http://www.w3.org/2000/svg" width="39.375" height="32.539" viewBox="0 0 39.375 32.539">
  <defs>
    <style>
      .cls-1 {
        fill: #e5cfb4;
      }
    </style>
  </defs>
  <g id="dental-veneer" transform="translate(0 -44.446)">
    <g id="Group_772" data-name="Group 772" transform="translate(0 44.446)">
      <path id="Path_1339" data-name="Path 1339" class="cls-1" d="M111.787,391.692a3.771,3.771,0,0,1-1.914-1.963.688.688,0,0,0-1.245,0h0a3.77,3.77,0,0,1-1.913,1.963.688.688,0,0,0,0,1.3,3.771,3.771,0,0,1,1.914,1.963.688.688,0,0,0,1.245,0,3.77,3.77,0,0,1,1.913-1.963.688.688,0,0,0,0-1.3Zm-2.536,2.02a5,5,0,0,0-1.3-1.37,5,5,0,0,0,1.3-1.37,5,5,0,0,0,1.3,1.37A5,5,0,0,0,109.251,393.711Z" transform="translate(-98.081 -362.811)"/>
      <path id="Path_1340" data-name="Path 1340" class="cls-1" d="M307.6,136.429a3.078,3.078,0,0,1-1.52-1.567.671.671,0,0,0-.6-.384h0a.672.672,0,0,0-.6.383h0a3.078,3.078,0,0,1-1.521,1.567.668.668,0,0,0,0,1.263,3.078,3.078,0,0,1,1.521,1.568.672.672,0,0,0,.6.383h0a.671.671,0,0,0,.6-.383,3.078,3.078,0,0,1,1.521-1.568.668.668,0,0,0,0-1.263Zm-2.125,1.582a4.229,4.229,0,0,0-.9-.95,4.227,4.227,0,0,0,.9-.95,4.227,4.227,0,0,0,.9.95A4.229,4.229,0,0,0,305.474,138.011Z" transform="translate(-279.604 -127.554)"/>
      <path id="Path_1341" data-name="Path 1341" class="cls-1" d="M34.872,51.134c-.511-.144-1.045-.282-1.6-.414a4.613,4.613,0,0,1,1.793-1.194.75.75,0,0,0,0-1.417,6.205,6.205,0,0,1-3.174-3.232.744.744,0,0,0-.679-.43h0a.744.744,0,0,0-.679.43h0a6.2,6.2,0,0,1-3.174,3.232.75.75,0,0,0,0,1.417,3.87,3.87,0,0,1,.408.169,59.19,59.19,0,0,0-19.112.48c-1.493.282-2.891.6-4.155.96A6.21,6.21,0,0,0,0,57.1v9.847a1.72,1.72,0,0,0,1.718,1.718H5.248a1.707,1.707,0,0,0,.864-.234A1.774,1.774,0,0,0,7.3,69.2a.577.577,0,1,0,.189-1.139.625.625,0,0,1-.524-.62V61.383a2.494,2.494,0,1,1,4.988,0v6.055a.629.629,0,0,1-.628.628H10.057a.577.577,0,1,0,0,1.155h1.269a1.771,1.771,0,0,0,.86-.222,1.977,1.977,0,0,0,1.744,1.049h4.329a1.969,1.969,0,0,0,1.4-.587,1.969,1.969,0,0,0,1.4.587H25.4a1.977,1.977,0,0,0,1.755-1.071,1.771,1.771,0,0,0,.9.244h3.731a1.782,1.782,0,0,0,1.481-.791,1.706,1.706,0,0,0,.865.235h3.531a1.72,1.72,0,0,0,1.718-1.718V57.1a6.21,6.21,0,0,0-4.5-5.965Zm-3.658-5.071a7.456,7.456,0,0,0,2.631,2.753,7.457,7.457,0,0,0-2.631,2.753,7.454,7.454,0,0,0-2.631-2.753A7.453,7.453,0,0,0,31.215,46.064ZM5.812,66.946a.564.564,0,0,1-.563.563H1.718a.564.564,0,0,1-.563-.563V61.217c0-.037,0-.074,0-.111a1.667,1.667,0,0,1,.758-1.322A1.8,1.8,0,0,1,3.531,59.6c1.4.519,2.171,1.329,2.28,2.408v4.941ZM19.08,68.072a.822.822,0,0,1-.821.821H13.93a.822.822,0,0,1-.821-.821V61.047a2.986,2.986,0,1,1,5.971,0Zm13.329-.634a.629.629,0,0,1-.628.628H28.049a.629.629,0,0,1-.628-.628V61.383a2.494,2.494,0,1,1,4.988,0v6.055Zm5.248.072H34.127a.564.564,0,0,1-.563-.563V62.005c.109-1.079.876-1.889,2.28-2.408a1.8,1.8,0,0,1,1.616.187,1.667,1.667,0,0,1,.758,1.322c0,.037,0,5.84,0,5.84A.564.564,0,0,1,37.657,67.509Zm.563-8.6c-.04-.03-.081-.059-.123-.087a2.962,2.962,0,0,0-2.654-.307,5.235,5.235,0,0,0-2.183,1.414,3.645,3.645,0,0,0-6.3-.681A4.144,4.144,0,0,0,22.337,57a.577.577,0,0,0,.248,1.128,2.989,2.989,0,0,1,3.631,2.916v7.024a.822.822,0,0,1-.821.821H21.067a.822.822,0,0,1-.821-.821V61.047a2.972,2.972,0,0,1,.484-1.63.577.577,0,0,0-.967-.631c-.035.054-.069.109-.1.164a4.137,4.137,0,0,0-7.275.257,3.646,3.646,0,0,0-6.272.721,5.236,5.236,0,0,0-2.183-1.414,2.962,2.962,0,0,0-2.654.307c-.042.028-.083.057-.123.087V57.1a5.051,5.051,0,0,1,3.661-4.853c1.231-.346,2.6-.662,4.056-.937a58.057,58.057,0,0,1,20.648-.176,8.16,8.16,0,0,1,1.016,1.625.744.744,0,0,0,.679.43h0a.744.744,0,0,0,.678-.43,8.379,8.379,0,0,1,.586-1.038c.727.166,1.424.341,2.081.526A5.051,5.051,0,0,1,38.221,57.1Z" transform="translate(0 -44.446)"/>
    </g>
  </g>
</svg>
