<svg xmlns="http://www.w3.org/2000/svg" width="281.609" height="53.431">
    <path data-name="Path 1360" d="m684.736 2138.74-.068-1.457 124.983-15.491a15073.071 15073.071 0 0 0-119.87 7.559l-.04-1.458c47.362-3.177 95.066-6.148 142.766-8.9 24.513-2.9 49.378-5.321 74.232-5.335l38.046-4.047.064 1.458-26.119 2.777q2.342.077 4.678.185 20.719-1.069 41.366-2.077l.032 1.46q-13.4.775-26.836 1.639 6.914.654 13.806 1.653l-.021 1.457-249.088 18.667zm139.931-14.885-75.5 8.031 195.5-14.651q-8.459-1.007-16.951-1.509-51.421 3.431-103.049 8.129zm7.892-3.4q-10.026 1.187-19.966 2.438l-22.416 2.778q17.2-1.705 34.435-3.273l30.093-3.2q-11.068.619-22.146 1.257zm56.945-4.961c-9.06.374-18.105 1.01-27.129 1.813q10.443-.582 20.876-1.147z" transform="rotate(5 24502.655 -6756.858)" style="fill:#e5cfb4"/>
</svg>
