<svg xmlns="http://www.w3.org/2000/svg" width="447.629" height="41.735">
    <path data-name="Path 1326" d="m684.777 2135.765-.109-1.308 199.423-13.909a42595.063 42595.063 0 0 0-191.267 6.787l-.064-1.31c75.571-2.853 151.688-5.52 227.8-7.987 39.113-2.6 78.787-4.778 118.446-4.791l60.706-3.634.1 1.309-41.676 2.493q3.736.069 7.465.167 33.06-.96 66-1.865l.05 1.311q-21.374.7-42.82 1.472 11.031.587 22.029 1.484l-.033 1.308-397.447 16.76zm223.275-13.365-120.462 7.211 311.94-13.155q-13.5-.9-27.047-1.355-82.053 3.081-164.431 7.299zm12.592-3.052q-16 1.065-31.859 2.189l-35.768 2.494q27.452-1.531 54.944-2.939l48.017-2.875q-17.657.559-35.333 1.131zm90.862-4.455c-14.456.336-28.889.907-43.287 1.628q16.664-.522 33.309-1.03z" transform="rotate(2 60772.63 -18531.357)" style="fill:#e5cfb4"/>
</svg>
