<svg xmlns="http://www.w3.org/2000/svg" width="24.791" height="35" viewBox="0 0 24.791 35">
  <defs>
    <style>
      .cls-1 {
        fill: #e5cfb4;
      }
    </style>
  </defs>
  <g id="tooth-filling" transform="translate(-3 0)">
    <path id="Path_1345" data-name="Path 1345" class="cls-1" d="M13.1,6.679A5.11,5.11,0,0,1,8,1.575a4.809,4.809,0,0,1,.1-1A.73.73,0,0,1,9.056.04a15.08,15.08,0,0,1,1.778.752,4.828,4.828,0,0,0,4.543,0,14.921,14.921,0,0,1,1.775-.75.73.73,0,0,1,.954.54,4.689,4.689,0,0,1,.1.995A5.11,5.11,0,0,1,13.1,6.679ZM9.463,1.762a3.646,3.646,0,0,0,7.283,0c-.244.1-.481.214-.719.334a6.279,6.279,0,0,1-5.842,0c-.239-.12-.478-.23-.722-.335Z" transform="translate(2.292 0)"/>
    <path id="Path_1346" data-name="Path 1346" class="cls-1" d="M21.156,32.708a3,3,0,0,1-2.934-2.443l-1.24-6.714a1.609,1.609,0,0,0-3.173,0l-1.241,6.711a3,3,0,0,1-2.933,2.448,2.971,2.971,0,0,1-2.956-2.7L6.2,25.434a26.069,26.069,0,0,0-1.022-4.875l-.945-2.987A26.027,26.027,0,0,1,3,9.667,4.651,4.651,0,0,1,7.623,5a9.859,9.859,0,0,1,2.107.22.733.733,0,0,1,.576.69,5.092,5.092,0,0,0,10.179,0,.733.733,0,0,1,.576-.69A9.663,9.663,0,0,1,23.081,5a4.6,4.6,0,0,1,3.366,1.371,4.688,4.688,0,0,1,1.345,3.3,26.078,26.078,0,0,1-1.231,7.905l-.946,2.988a26.066,26.066,0,0,0-1.021,4.878l-.48,4.575a2.973,2.973,0,0,1-2.957,2.695ZM15.4,20.75a3.077,3.077,0,0,1,3.022,2.539L19.655,30a1.543,1.543,0,0,0,1.5,1.254,1.521,1.521,0,0,0,1.506-1.385l.48-4.583a27.582,27.582,0,0,1,1.079-5.158l.948-2.991a24.624,24.624,0,0,0,1.164-7.465A3.273,3.273,0,0,0,25.4,7.392a3.1,3.1,0,0,0-2.236-.933,8.422,8.422,0,0,0-1.27.092,6.553,6.553,0,0,1-13.005,0A7.822,7.822,0,0,0,7.71,6.458,3.21,3.21,0,0,0,4.458,9.667a24.668,24.668,0,0,0,1.162,7.465l.946,2.99a27.536,27.536,0,0,1,1.081,5.155l.48,4.585a1.523,1.523,0,0,0,1.508,1.388,1.541,1.541,0,0,0,1.5-1.261l1.24-6.7A3.074,3.074,0,0,1,15.4,20.75Z" transform="translate(0 2.292)"/>
  </g>
</svg>
