<svg xmlns="http://www.w3.org/2000/svg" width="38.045" height="38.047" viewBox="0 0 38.045 38.047">
  <defs>
    <style>
      .cls-1 {
        fill: #e5cfb4;
      }
    </style>
  </defs>
  <g id="checkup" transform="translate(-0.327 0.001)">
    <path id="Path_1350" data-name="Path 1350" class="cls-1" d="M86.387,70.563A7,7,0,0,0,76.492,65.1a2.054,2.054,0,0,1-1.765,0,7,7,0,0,0-8.7,10.342,13.322,13.322,0,0,1,2.153,5.271l.888,5.1a1.907,1.907,0,0,0,1.883,1.578h.995a1.917,1.917,0,0,0,1.9-1.666l.7-5.425a.637.637,0,0,1,.634-.556h.876a.638.638,0,0,1,.632.555l.7,5.426a1.917,1.917,0,0,0,1.9,1.666h.995a1.906,1.906,0,0,0,1.883-1.581l.888-5.1A13.322,13.322,0,0,1,85.2,75.442,7.015,7.015,0,0,0,86.387,70.563Zm-2.238,4.155A14.583,14.583,0,0,0,81.791,80.5L80.9,85.592a.637.637,0,0,1-.628.526h-.993a.637.637,0,0,1-.632-.555l-.7-5.426a1.917,1.917,0,0,0-1.9-1.666h-.876a1.917,1.917,0,0,0-1.9,1.666l-.7,5.425a.637.637,0,0,1-.632.555h-1a.637.637,0,0,1-.628-.526l-.89-5.095a14.592,14.592,0,0,0-2.358-5.779,5.73,5.73,0,0,1,7.118-8.461,3.353,3.353,0,0,0,2.841,0,5.73,5.73,0,0,1,7.119,8.461Zm0,0" transform="translate(-59.315 -59.319)"/>
    <path id="Path_1351" data-name="Path 1351" class="cls-1" d="M34.769,27.231a1.957,1.957,0,0,0-2.7,0l-2.485-2.485a15.95,15.95,0,1,0-4.508,4.508l2.485,2.485a1.912,1.912,0,0,0,0,2.7l3.6,3.6.9-.9-3.6-3.6a.637.637,0,0,1,0-.9l4.506-4.506a.651.651,0,0,1,.9,0l3.6,3.6.9-.9ZM1.638,15.966A14.656,14.656,0,1,1,16.295,30.622,14.656,14.656,0,0,1,1.638,15.966Zm27.185,9.822,2.342,2.343-2.705,2.706-2.343-2.342A16.047,16.047,0,0,0,28.823,25.788Zm0,0" transform="translate(0)"/>
    <path id="Path_1352" data-name="Path 1352" class="cls-1" d="M159.632,102.818a4.859,4.859,0,0,1-2.811-.834l-.751,1.03a6.42,6.42,0,0,0,7.124,0l-.751-1.03A4.859,4.859,0,0,1,159.632,102.818Zm0,0" transform="translate(-143.338 -93.862)"/>
  </g>
</svg>
