<svg xmlns="http://www.w3.org/2000/svg" width="248.672" height="61.331" viewBox="0 0 248.672 61.331">
  <defs>
    <style>
      .cls-1 {
        fill: #414141;
        font-size: 21px;
        font-family: Poppins-SemiBold, Poppins;
        font-weight: 600;
      }

      .cls-2 {
        fill: #fbbb00;
      }

      .cls-3 {
        fill: #518ef8;
      }

      .cls-4 {
        fill: #28b446;
      }

      .cls-5 {
        fill: #f14336;
      }
    </style>
  </defs>
  <g id="google_stars" data-name="google stars" transform="translate(-255 -2766.335)">
    <text id="Google_5_Stars" data-name="Google 5 Stars" class="cls-1" transform="translate(348 2790)"><tspan x="0" y="0">Google 5 Stars</tspan></text>
    <g id="search_1_" data-name="search (1)" transform="translate(255 2766.335)">
      <path id="Path_1363" data-name="Path 1363" class="cls-2" d="M13.592,158.768l-2.135,7.97-7.8.165a30.719,30.719,0,0,1-.226-28.635h0l6.947,1.274,3.043,6.9a18.3,18.3,0,0,0,.172,12.322Z" transform="translate(0 -121.705)"/>
      <path id="Path_1364" data-name="Path 1364" class="cls-3" d="M291.083,208.176a30.654,30.654,0,0,1-10.932,29.643l0,0-8.75-.446-1.238-7.73a18.276,18.276,0,0,0,7.863-9.333h-16.4V208.176h29.455Z" transform="translate(-230.289 -183.239)"/>
      <path id="Path_1365" data-name="Path 1365" class="cls-4" d="M76.716,326.924l0,0a30.675,30.675,0,0,1-46.209-9.382l9.938-8.135a18.238,18.238,0,0,0,26.281,9.338Z" transform="translate(-26.854 -272.346)"/>
      <path id="Path_1366" data-name="Path 1366" class="cls-5" d="M75.434,7.06,65.5,15.193a18.235,18.235,0,0,0-26.884,9.548l-9.99-8.179h0a30.672,30.672,0,0,1,46.81-9.5Z" transform="translate(-25.195)"/>
    </g>
    <path id="Icon_awesome-star" data-name="Icon awesome-star" class="cls-2" d="M10.668.687,8.145,5.8,2.5,6.626a1.237,1.237,0,0,0-.684,2.11L5.9,12.716l-.966,5.622a1.236,1.236,0,0,0,1.793,1.3l5.05-2.655,5.05,2.655a1.237,1.237,0,0,0,1.793-1.3l-.966-5.622,4.084-3.98a1.237,1.237,0,0,0-.684-2.11L15.409,5.8,12.886.687a1.238,1.238,0,0,0-2.218,0Z" transform="translate(346.559 2803.273)"/>
    <path id="Icon_awesome-star-2" data-name="Icon awesome-star" class="cls-2" d="M10.668.687,8.145,5.8,2.5,6.626a1.237,1.237,0,0,0-.684,2.11L5.9,12.716l-.966,5.622a1.236,1.236,0,0,0,1.793,1.3l5.05-2.655,5.05,2.655a1.237,1.237,0,0,0,1.793-1.3l-.966-5.622,4.084-3.98a1.237,1.237,0,0,0-.684-2.11L15.409,5.8,12.886.687a1.238,1.238,0,0,0-2.218,0Z" transform="translate(414.559 2803.273)"/>
    <path id="Icon_awesome-star-3" data-name="Icon awesome-star" class="cls-2" d="M10.668.687,8.145,5.8,2.5,6.626a1.237,1.237,0,0,0-.684,2.11L5.9,12.716l-.966,5.622a1.236,1.236,0,0,0,1.793,1.3l5.05-2.655,5.05,2.655a1.237,1.237,0,0,0,1.793-1.3l-.966-5.622,4.084-3.98a1.237,1.237,0,0,0-.684-2.11L15.409,5.8,12.886.687a1.238,1.238,0,0,0-2.218,0Z" transform="translate(481.559 2803.273)"/>
    <path id="Icon_awesome-star-4" data-name="Icon awesome-star" class="cls-2" d="M10.668.687,8.145,5.8,2.5,6.626a1.237,1.237,0,0,0-.684,2.11L5.9,12.716l-.966,5.622a1.236,1.236,0,0,0,1.793,1.3l5.05-2.655,5.05,2.655a1.237,1.237,0,0,0,1.793-1.3l-.966-5.622,4.084-3.98a1.237,1.237,0,0,0-.684-2.11L15.409,5.8,12.886.687a1.238,1.238,0,0,0-2.218,0Z" transform="translate(380.559 2803.273)"/>
    <path id="Icon_awesome-star-5" data-name="Icon awesome-star" class="cls-2" d="M10.668.687,8.145,5.8,2.5,6.626a1.237,1.237,0,0,0-.684,2.11L5.9,12.716l-.966,5.622a1.236,1.236,0,0,0,1.793,1.3l5.05-2.655,5.05,2.655a1.237,1.237,0,0,0,1.793-1.3l-.966-5.622,4.084-3.98a1.237,1.237,0,0,0-.684-2.11L15.409,5.8,12.886.687a1.238,1.238,0,0,0-2.218,0Z" transform="translate(447.559 2803.273)"/>
  </g>
</svg>
