<svg id="Layer_1" data-name="Layer 1" xmlns="http://www.w3.org/2000/svg" viewBox="0 0 1800 488.71"><defs><style>.cls-1{fill:#ddb58a;}</style></defs><path d="M677.14,151.47h-.23c-1.09,4.42-2.22,10.11-3.41,14.47L669,181.87l16.59,0-4.68-15.94C679.64,161.48,678.3,155.86,677.14,151.47Z"/><path d="M768.37,285.68c-11.49,0-18.19,10.87-18.16,25.46s7,25,18.28,25,18-10.86,18-25.44C786.45,297.2,780,285.66,768.37,285.68Z"/><path d="M552.4,286.22a37.13,37.13,0,0,0-7.7.65l.08,49.13a39.05,39.05,0,0,0,5.91.28c15.36.11,25.44-8.4,25.42-26.32C576.12,294.37,567,286.19,552.4,286.22Z"/><path d="M206.71,151.94a37.9,37.9,0,0,0-7.71.65l.08,49.12A36.67,36.67,0,0,0,205,202c15.36.12,25.45-8.38,25.42-26.31C230.42,160.09,221.29,151.92,206.71,151.94Z"/><path d="M968,0V.32H205.32C92.11.32,0,92.43,0,205.64V488.71H997.38v-.32H1800V0ZM200.68,350.46c-8.5,0-17-2.29-21.19-4.63l3.41-14a41.94,41.94,0,0,0,18.81,4.68c7.78,0,11.9-3.26,11.9-8.19,0-4.61-3.59-7.31-12.58-10.47-12.51-4.41-20.7-11.22-20.72-22.17,0-12.79,10.7-22.53,28.34-22.56,8.55,0,14.73,1.68,19.16,3.75l-3.73,13.6a36.23,36.23,0,0,0-15.66-3.54c-7.39,0-10.91,3.44-10.9,7.28,0,4.76,4.16,6.86,13.9,10.52,13.28,4.94,19.45,11.83,19.46,22.43C230.91,339.67,221.33,350.43,200.68,350.46Zm35.32-145c-7.87,6.59-19.95,9.75-34.57,9.77a141.79,141.79,0,0,1-19.27-1.08l-.11-73.64a150.41,150.41,0,0,1,22.87-1.66c14.23,0,23.52,2.6,30.72,8,7.8,5.79,12.7,14.93,12.72,28.19C248.38,189.46,243.2,199.41,236,205.49ZM323.87,349.1l-16.95,0-.1-60.77-20.24,0,0-14.23,57.72-.09,0,14.24-20.53,0Zm-15-134.79-.11-75,46.21-.07,0,13.89-29.25.05,0,15.62,27.6,0,0,13.76-27.6,0,0,17.84,30.86-.05,0,13.89Zm124,135.85c-18.94,0-30-10.46-30-34.29L402.76,274l17,0,.07,43.13c0,13,5,19.57,13.61,19.56,8.91,0,13.8-6.31,13.78-19.6l-.07-43.13,16.95,0,.07,42.09C464.17,339.11,452.48,350.13,432.86,350.16ZM462,214.07,445.9,185.22a272.48,272.48,0,0,1-13.07-26.48l-.38,0c.54,9.94.78,20.54.79,32.79l0,22.55-15.57,0-.12-75,19.76,0L453,166.6a216.7,216.7,0,0,1,12.3,25.71l.28-.05a296.75,296.75,0,0,1-1.42-31.32l0-21.87,15.57,0,.11,75ZM581.7,339.77c-7.88,6.59-20,9.75-34.57,9.78a141.29,141.29,0,0,1-19.27-1.09l-.11-73.64a149.11,149.11,0,0,1,22.86-1.65c14.23,0,23.53,2.59,30.72,8,7.8,5.81,12.7,14.95,12.73,28.21C594.08,323.75,588.89,333.69,581.7,339.77Zm-6.35-186.63.09,60.76-17,0-.09-60.76-20.24,0,0-14.24,57.72-.09,0,14.23Zm79.34,195.45-.12-75,17,0,.12,75ZM694,213.72l-5.8-19.25-21.57,0-5.26,19.27-17.54,0,22.78-75,22.19,0,23.47,75Zm73.71,135.92c-22.24,0-35.35-16.77-35.38-38.16,0-22.42,14.36-39.25,36.44-39.29,23,0,35.63,17.17,35.66,37.92C804.43,334.72,789.6,349.61,767.67,349.64Zm3.41-136-.11-75,17,0,.09,60.79,29.84-.05,0,14.22ZM1771,459.42H997.38V29H1771Z"/><path class="cls-1" d="M1242.41,354.56l-.28-179.08q-3.06,1.67-6.93,3.34t-8.2,3.48q-4.29,1.81-8.32,3.49c-2.68,1.11-5.14,2.22-7.35,3.34l0-34.43q3-1.66,8.59-4.6t11.93-6.54q6.39-3.6,11.94-7.38a57.88,57.88,0,0,0,8.31-6.53l36.37-.06.35,224.9Z"/><path class="cls-1" d="M1389.84,358.5q-20.27,0-33.89-8.15a52.25,52.25,0,0,1-20.58-22.59q-7-14.43-7-33.58l-.16-101.89q0-19.72,6.47-34.59a50.2,50.2,0,0,1,20.09-23.21q13.59-8.36,34.7-8.38t34.58,8.27a50.56,50.56,0,0,1,20,23.15q6.54,14.86,6.57,34.56l.17,101.89q0,18.9-6.9,33.48a52.1,52.1,0,0,1-20.51,22.79Q1409.81,358.47,1389.84,358.5Zm-.07-41.38c4.45,0,7.64-1.43,9.58-4.31a22.1,22.1,0,0,0,3.58-10,81.3,81.3,0,0,0,.69-9.85l-.16-99.68c0-3.14-.19-6.71-.57-10.69A23.29,23.29,0,0,0,1399.4,172q-2.91-4.57-9.86-4.56t-9.85,4.6a23.59,23.59,0,0,0-3.46,10.54c-.36,4-.54,7.55-.54,10.7l.16,99.68a68.68,68.68,0,0,0,.85,9.84,23.92,23.92,0,0,0,3.76,10Q1383.39,317.13,1389.77,317.12Z"/><path class="cls-1" d="M1503.12,354.16l-.28-179.08q-3.06,1.66-6.93,3.34c-2.61,1.11-5.33,2.28-8.2,3.48s-5.64,2.36-8.32,3.49-5.14,2.22-7.35,3.33L1472,154.3c2-1.11,4.91-2.65,8.6-4.6s7.68-4.13,11.93-6.54,8.23-4.87,11.93-7.38a57.5,57.5,0,0,0,8.32-6.53l36.37-.06.35,224.9Z"/></svg>