<svg id="Layer_1" data-name="Layer 1" xmlns="http://www.w3.org/2000/svg" viewBox="0 0 216 58.65"><defs><style>.cls-1{fill:#fff;}</style></defs><path class="cls-1" d="M81.26,18.18h0c-.13.53-.27,1.21-.41,1.73l-.54,1.91h2l-.56-1.91C81.56,19.38,81.4,18.7,81.26,18.18Z"/><path class="cls-1" d="M92.2,34.28c-1.37,0-2.18,1.31-2.17,3.06s.83,3,2.19,3,2.16-1.3,2.16-3.05S93.6,34.28,92.2,34.28Z"/><path class="cls-1" d="M66.29,34.35a4.61,4.61,0,0,0-.93.07v5.9a5.09,5.09,0,0,0,.71,0c1.85,0,3.06-1,3-3.16A2.58,2.58,0,0,0,66.29,34.35Z"/><path class="cls-1" d="M24.8,18.23a4.37,4.37,0,0,0-.92.08v5.9a5.09,5.09,0,0,0,.71,0c1.84,0,3-1,3-3.16A2.6,2.6,0,0,0,24.8,18.23Z"/><path class="cls-1" d="M116.15,0V0H24.64A24.66,24.66,0,0,0,0,24.68v34H119.69v0H216V0ZM24.08,42.05a5.7,5.7,0,0,1-2.54-.55L22,39.82a5,5,0,0,0,2.25.56c.94,0,1.43-.39,1.43-1s-.43-.88-1.51-1.26c-1.5-.53-2.48-1.35-2.48-2.66,0-1.53,1.28-2.7,3.4-2.71a5.36,5.36,0,0,1,2.3.45l-.45,1.63A4.53,4.53,0,0,0,25,34.43c-.89,0-1.31.41-1.31.87s.5.83,1.67,1.27c1.59.59,2.33,1.42,2.34,2.69C27.71,40.76,26.56,42.05,24.08,42.05Zm4.24-17.39a6.43,6.43,0,0,1-4.15,1.17,17.05,17.05,0,0,1-2.31-.13V16.86a18,18,0,0,1,2.74-.19,5.77,5.77,0,0,1,3.69,1A4,4,0,0,1,29.8,21,4.54,4.54,0,0,1,28.32,24.66ZM38.86,41.89h-2V34.6H34.39V32.9h6.92V34.6H38.85ZM37.07,25.72l0-9H42.6v1.67H39.09v1.88H42.4V21.9H39.09v2.14h3.7v1.67ZM51.94,42c-2.27,0-3.6-1.26-3.6-4.12v-5h2v5.18c0,1.55.61,2.35,1.64,2.35s1.65-.76,1.65-2.35V32.87h2v5.05C55.7,40.69,54.3,42,51.94,42Zm3.5-16.33-1.93-3.46a33.54,33.54,0,0,1-1.57-3.18h0c.07,1.2.1,2.47.1,3.94v2.7H50.12v-9h2.37L54.36,20a25.75,25.75,0,0,1,1.47,3.09h0a34.32,34.32,0,0,1-.17-3.76V16.69h1.87v9ZM69.8,40.77A6.48,6.48,0,0,1,65.66,42a19.11,19.11,0,0,1-2.32-.13V33a18,18,0,0,1,2.74-.2,5.81,5.81,0,0,1,3.69,1,4,4,0,0,1,1.53,3.39A4.54,4.54,0,0,1,69.8,40.77ZM69,18.38v7.29H67V18.38H64.58v-1.7l6.92,0v1.71Zm9.52,23.45v-9h2l0,9Zm4.71-16.18-.69-2.31H80l-.63,2.31h-2.1l2.73-9h2.66l2.82,9ZM92.12,42c-2.67,0-4.24-2-4.24-4.58s1.72-4.71,4.37-4.72,4.27,2.06,4.28,4.55C96.53,40.17,94.75,42,92.12,42Zm.41-16.33v-9h2v7.29h3.58v1.7Zm120,29.5H119.69V3.48h92.83Z"/><path class="cls-1" d="M149.09,42.55l0-21.49c-.25.13-.53.26-.84.4l-1,.42-1,.41c-.32.14-.61.27-.88.41V18.56l1-.55q.68-.35,1.44-.78c.51-.29,1-.59,1.43-.89a8,8,0,0,0,1-.78h4.36l0,27Z"/><path class="cls-1" d="M166.78,43a7.74,7.74,0,0,1-4.07-1,6.29,6.29,0,0,1-2.47-2.71,9.27,9.27,0,0,1-.83-4l0-12.23a10.14,10.14,0,0,1,.77-4.15,6.1,6.1,0,0,1,2.41-2.78,7.94,7.94,0,0,1,4.17-1,7.75,7.75,0,0,1,4.15,1,6.06,6.06,0,0,1,2.4,2.77,10.27,10.27,0,0,1,.79,4.15l0,12.23a9.13,9.13,0,0,1-.83,4A6.23,6.23,0,0,1,170.81,42,7.64,7.64,0,0,1,166.78,43Zm0-5a1.28,1.28,0,0,0,1.15-.51,2.7,2.7,0,0,0,.43-1.2,7.64,7.64,0,0,0,.08-1.19v-12c0-.37,0-.8-.07-1.28a2.85,2.85,0,0,0-.42-1.26,1.28,1.28,0,0,0-1.18-.55,1.3,1.3,0,0,0-1.19.55,2.8,2.8,0,0,0-.41,1.26,12.46,12.46,0,0,0-.07,1.29l0,12a9.37,9.37,0,0,0,.1,1.18,2.77,2.77,0,0,0,.46,1.2A1.22,1.22,0,0,0,166.77,38.05Z"/><path class="cls-1" d="M180.37,42.5l0-21.49c-.24.13-.52.27-.83.4l-1,.42-1,.42a9.4,9.4,0,0,0-.89.4V18.52l1-.56c.44-.23.92-.49,1.43-.78s1-.58,1.43-.89a6.73,6.73,0,0,0,1-.78h4.37l0,27Z"/></svg>